<svg xmlns="http://www.w3.org/2000/svg" xmlns:xlink="http://www.w3.org/1999/xlink" id="Capa_1" x="0" y="0" version="1.1" viewBox="0 0 255.1 255.1" xml:space="preserve" style="enable-background:new 0 0 255.1 255.1"><style type="text/css">.st0Dragon{fill:#006fc9}.st1Dragon{fill:#fefefe}</style><circle cx="127.6" cy="127.6" r="121.6" class="st0Dragon"/><g><path d="M126.685,179.553c14.923,0.159,26.121-6.269,32.82-19.643c8.319-16.609,1.766-36.906-14.503-46.024 c-0.381-0.213-0.751-0.467-1.159-0.608c-1.476-0.509-1.939-1.439-1.704-3.017c0.257-1.718,0.252-3.485,0.244-5.229 c-0.023-4.759-1.941-8.807-4.825-12.469c-0.154-0.195-0.365-0.346-0.549-0.517c-0.188,0.262-0.028,0.496,0.086,0.711 c2.378,4.497,2.613,9.355,2.469,14.292c-0.061,2.066-0.694,3.935-1.6,5.754c-1.207,2.426-2.975,3.778-5.803,4.266 c-16.193,2.79-32.127,6.764-48.056,10.763c-11.096,2.786-22.247,5.358-33.373,8.024c-0.425,0.102-0.849,0.223-1.281,0.271 c-0.228,0.025-0.615-0.024-0.674-0.156c-0.085-0.187,0.017-0.505,0.126-0.724c0.192-0.39,0.445-0.751,0.68-1.119 c8.678-13.554,16.458-27.623,23.95-41.855c0.923-1.754,2.134-3.086,3.756-4.233c12.85-9.081,25.546-18.365,37.481-28.65 c9.836-8.476,18.711-17.85,26.683-28.09c0.376-0.483,0.749-0.967,1.139-1.438c0.103-0.124,0.275-0.295,0.395-0.28 c0.361,0.045,0.275,0.349,0.232,0.585c-0.125,0.687-0.267,1.371-0.398,2.057c-1.993,10.4-5.924,20.076-10.896,29.375 c-1.864,3.486-1.803,3.485,2.189,3.589c32.048,0.834,59.999,22.141,69.198,52.89c9.836,32.881-3.971,67.726-33.37,85.147 c-4.45,2.637-9.129,4.759-14.01,6.469c-1.43,0.501-2.641,0.385-4.007-0.22c-5.994-2.657-11.121-6.574-15.954-10.897 c-5.43-4.856-10.229-10.28-14.16-16.44c-0.329-0.515-0.646-1.038-0.956-1.565c-0.4-0.68-0.488-1.092,0.594-1.041 C123.188,179.614,124.938,179.553,126.685,179.553z M102.002,94.17c-0.146-1.387-0.283-2.775-0.443-4.16 c-0.04-0.344-0.147-0.681-0.23-1.019c-0.161-0.654-0.544-0.849-1.14-0.511c-0.378,0.215-0.746,0.452-1.102,0.702 c-8.231,5.761-15.007,12.984-21.01,20.973c-0.921,1.225-0.731,1.55,0.92,1.591c6.903,0.169,13.057-1.863,18.308-6.406 C100.699,102.403,102.176,98.631,102.002,94.17z" class="st1Dragon"/><path d="M123.195,211.207c-6.948-0.777-13.843-1.838-20.563-3.838c-10.778-3.207-19.883-9.221-28.17-16.66 c-11.739-10.538-19.128-23.671-23.343-38.728c-0.468-1.67-0.451-1.71,1.336-1.881c11.228-1.078,22.339-2.822,33.26-5.698 c6.426-1.693,12.706-3.812,18.875-6.272c0.811-0.323,1.627-0.634,2.45-0.926c0.143-0.051,0.358-0.026,0.491,0.05 c0.301,0.172,0.18,0.44,0.051,0.659c-0.309,0.527-0.646,1.038-0.96,1.561c-0.99,1.646-2.004,3.279-2.958,4.946 c-4.851,8.47-6.05,17.516-4.459,27.08c2.197,13.214,8.391,24.119,18.523,32.824c2.583,2.22,5.202,4.399,7.789,6.614 c0.208,0.178,0.681,0.237,0.499,0.665c-0.026,0.061-0.486-0.063-0.746-0.1C124.578,211.403,123.886,211.306,123.195,211.207z" class="st1Dragon"/></g></svg>