<svg xmlns="http://www.w3.org/2000/svg" width="552" height="552" viewBox="-11 0 414 414.188"><path fill="#c1dbdc" d="m384.128906 242.347656c0 84.828125-68.769531 153.597656-153.601562 153.597656-84.828125 0-153.597656-68.769531-153.597656-153.597656 0-84.832031 68.769531-153.601562 153.597656-153.601562 84.832031 0 153.601562 68.769531 153.601562 153.601562zm0 0"/><g fill="#4c241d"><path d="m44.269531 39.488281c-1.746093 0-3.492187-.667969-4.824219-2-2.667968-2.667969-2.667968-6.988281 0-9.652343l12.453126-12.457032c2.664062-2.664062 6.984374-2.664062 9.652343 0 2.664063 2.667969 2.664063 6.988282 0 9.65625l-12.453125 12.453125c-1.335937 1.332031-3.082031 2-4.828125 2zm0 0"/><path d="m15.214844 68.539062c-1.746094 0-3.492188-.667968-4.824219-2-2.667969-2.664062-2.667969-6.988281 0-9.652343l12.453125-12.453125c2.664062-2.667969 6.984375-2.667969 9.652344 0 2.664062 2.664062 2.664062 6.988281 0 9.652344l-12.453125 12.453124c-1.332031 1.335938-3.078125 2-4.828125 2zm0 0"/><path d="m27.667969 39.488281c-1.746094 0-3.492188-.667969-4.824219-2l-12.453125-12.453125c-2.667969-2.667968-2.667969-6.988281 0-9.65625 2.664063-2.664062 6.984375-2.664062 9.652344 0l12.453125 12.457032c2.664062 2.664062 2.664062 6.984374 0 9.652343-1.332032 1.332031-3.082032 2-4.828125 2zm0 0"/><path d="m56.722656 68.539062c-1.746094 0-3.496094-.667968-4.828125-2l-12.453125-12.453124c-2.664062-2.664063-2.664062-6.988282 0-9.652344 2.667969-2.667969 6.988282-2.667969 9.652344 0l12.453125 12.453125c2.667969 2.664062 2.667969 6.988281 0 9.652343-1.332031 1.335938-3.078125 2-4.824219 2zm0 0"/><path d="m21.136719 414.1875c-3.421875 0-6.808594-.839844-9.90625-2.492188-4.960938-2.65625-8.585938-7.082031-10.222657-12.46875-1.632812-5.378906-1.0664058-11.078124 1.582032-16.039062 2.652344-4.960938 7.078125-8.585938 12.46875-10.21875 5.378906-1.640625 11.070312-1.074219 16.039062 1.585938 4.957032 2.65625 8.585938 7.078124 10.21875 12.460937v.007813c3.359375 11.105468-2.941406 22.886718-14.046875 26.253906-2.019531.609375-4.082031.910156-6.132812.910156zm.03125-28.472656c-.71875 0-1.445313.105468-2.152344.320312-1.894531.574219-3.453125 1.851563-4.386719 3.589844-.925781 1.746094-1.125 3.746094-.554687 5.640625.574219 1.894531 1.855469 3.453125 3.59375 4.386719 1.753906.933594 3.753906 1.121094 5.640625.554687 3.898437-1.179687 6.121094-5.328125 4.941406-9.234375-.574219-1.890625-1.855469-3.445312-3.59375-4.378906-1.09375-.585938-2.285156-.878906-3.488281-.878906zm0 0"/><path d="m362.328125 42.113281c-11.613281 0-21.058594-9.445312-21.058594-21.054687 0-11.613282 9.445313-21.058594 21.058594-21.058594 11.617187 0 21.0625 9.445312 21.0625 21.058594 0 11.609375-9.445313 21.054687-21.0625 21.054687zm0-28.460937c-4.085937 0-7.40625 3.320312-7.40625 7.40625 0 4.082031 3.320313 7.402344 7.40625 7.402344 4.089844 0 7.410156-3.320313 7.410156-7.402344 0-4.085938-3.324219-7.40625-7.410156-7.40625zm0 0"/><path d="m282.785156 27.886719c0 5.082031-4.121094 9.199219-9.203125 9.199219s-9.203125-4.117188-9.203125-9.199219 4.121094-9.203125 9.203125-9.203125 9.203125 4.121094 9.203125 9.203125zm0 0"/><path d="m23.371094 123.457031c0 5.082031-4.121094 9.203125-9.203125 9.203125s-9.199219-4.121094-9.199219-9.203125 4.117188-9.199219 9.199219-9.199219 9.203125 4.117188 9.203125 9.199219zm0 0"/></g><path fill="#b5a19c" d="m260.113281 109.871094v-.476563c0-12.816406-8.90625-24.535156-23.003906-30.269531-14.210937-5.777344-21.582031-18.804688-17.730469-31.339844l5.238282-17.03125v-19.246094l-11.734376 14.316407c-7.757812 9.457031-18.972656 16.699219-32.066406 20.6875-15.882812 4.84375-25.484375 18.015625-23.085937 31.671875 1.164062 6.613281-.808594 13.339844-5.519531 18.820312l-2.292969 2.667969c-64.460938 14.042969-111.929688 61.851563-111.929688 118.691406 0 67.875 67.664063 122.894531 151.132813 122.894531 83.464844 0 151.132812-55.019531 151.132812-122.894531 0-47-32.460937-87.820312-80.140625-108.492187zm0 0"/><path fill="#4c241d" d="m189.125 348.085938c-87.101562 0-157.960938-58.191407-157.960938-129.71875 0-58.128907 47.191407-109.199219 115.058594-124.859376l.828125-.960937c3.351563-3.90625 4.765625-8.59375 3.957031-13.179687-2.980468-17 8.71875-33.558594 27.8125-39.386719 11.886719-3.621094 21.84375-10.011719 28.78125-18.480469l11.734376-14.320312c1.816406-2.234376 4.847656-3.09375 7.578124-2.097657 2.714844.964844 4.527344 3.539063 4.527344 6.425781v19.246094c0 .679688-.101562 1.355469-.300781 2.007813l-5.234375 17.03125c-2.800781 9.113281 2.859375 18.574219 13.773438 23.007812 15.359374 6.246094 25.402343 18.484375 27.027343 32.546875 49.6875 23.003906 80.375 65.976563 80.375 113.019532 0 71.527343-70.859375 129.71875-157.957031 129.71875zm28.238281-316.980469c-8.601562 10.089843-20.519531 17.65625-34.554687 21.9375-12.605469 3.84375-20.152344 13.699219-18.351563 23.957031 1.527344 8.6875-.980469 17.375-7.0625 24.453125l-2.3125 2.679687c-.964843 1.121094-2.265625 1.894532-3.714843 2.214844-62.738282 13.660156-106.554688 59.726563-106.554688 112.019532 0 64 64.734375 116.066406 144.308594 116.066406 79.574218 0 144.308594-52.066406 144.308594-116.066406 0-42.726563-29.132813-81.898438-76.027344-102.226563-2.5-1.085937-4.113282-3.546875-4.113282-6.265625v-.480469c0-10.066406-7.1875-19.238281-18.753906-23.9375-17.445312-7.101562-26.566406-23.78125-21.679687-39.675781zm0 0"/><path fill="#4c241d" d="m365.402344 394.105469c-1.746094 0-3.492188-.664063-4.824219-2-2.667969-2.664063-2.667969-6.984375 0-9.652344l20.125-20.121094c2.667969-2.664062 6.988281-2.664062 9.652344 0 2.667969 2.667969 2.667969 6.988281 0 9.65625l-20.125 20.117188c-1.332031 1.335937-3.082031 2-4.828125 2zm0 0"/><path fill="#efefd2" d="m293.585938 327.757812c16.089843-15.226562 25.730468-34.019531 25.730468-54.441406 0-50.535156-54.777344-133.730468-126.691406-133.730468s-133.730469 83.195312-133.730469 133.730468c0 19.175782 8.425781 36.957032 22.773438 51.660156l-12.726563 12.050782c-6.628906 6.277344-6.191406 16.957031.921875 22.671875l25.152344 20.199219c7.117187 5.714843 17.640625 3.835937 22.335937-3.992188l12.675782-21.121094c8.367187 3 17.25 5.351563 26.542968 7.035156l-1.851562 13.507813c-1.238281 9.039063 5.789062 17.097656 14.917969 17.097656h32.257812c9.128907 0 16.15625-8.058593 14.917969-17.097656l-1.691406-12.347656c10.058594-1.433594 19.632812-3.761719 28.703125-6.722657l7.503906 16.957032c3.691406 8.34375 13.902344 11.511718 21.671875 6.722656l27.453125-16.9375c7.769531-4.792969 9.523437-15.335938 3.71875-22.382812zm0 0"/><path fill="#4c241d" d="m201.894531 399.253906h-32.257812c-6.320313 0-12.335938-2.734375-16.488281-7.492187-4.160157-4.769531-6.046876-11.09375-5.191407-17.363281l.980469-7.140626c-5.445312-1.183593-10.753906-2.605468-15.886719-4.238281l-9.84375 16.398438c-3.257812 5.421875-8.691406 9.175781-14.917969 10.28125-6.238281 1.125-12.625-.527344-17.546874-4.480469l-25.152344-20.199219c-4.933594-3.960937-7.90625-9.855469-8.160156-16.167969-.257813-6.320312 2.226562-12.433593 6.820312-16.789062l7.859375-7.4375c-13.132813-15.414062-20.039063-33.027344-20.039063-51.3125 0-54.222656 64.324219-140.550781 140.550782-140.550781 73.703125 0 133.519531 85.042969 133.519531 140.550781 0 19.757812-8.054687 38.613281-23.351563 54.878906l6.65625 8.085938c4.015626 4.886718 5.726563 11.261718 4.6875 17.5-1.039062 6.242187-4.71875 11.714844-10.097656 15.035156l-27.449218 16.933594c-5.386719 3.320312-11.953126 4.140625-17.980469 2.273437-6.039063-1.875-10.964844-6.265625-13.519531-12.046875l-5.050782-11.40625c-5.734375 1.660156-11.5 3.019532-17.246094 4.078125l.785157 5.753907c.851562 6.265624-1.03125 12.59375-5.195313 17.359374-4.148437 4.761719-10.164062 7.496094-16.484375 7.496094zm-71.863281-51.292968c.765625 0 1.546875.125 2.304688.398437 7.980468 2.859375 16.546874 5.132813 25.449218 6.738281 3.597656.65625 6.046875 4.019532 5.550782 7.648438l-1.84375 13.503906c-.335938 2.394531.359374 4.714844 1.945312 6.527344 1.585938 1.820312 3.789062 2.820312 6.199219 2.820312h32.261719c2.414062 0 4.613281-1 6.199218-2.820312 1.585938-1.8125 2.28125-4.132813 1.949219-6.527344l-1.6875-12.34375c-.507813-3.722656 2.085937-7.152344 5.804687-7.6875 9.148438-1.300781 18.421876-3.472656 27.542969-6.453125 3.351563-1.078125 6.9375.527344 8.359375 3.726563l7.503906 16.957031c.980469 2.210937 2.789063 3.816406 5.085938 4.53125 2.292969.699219 4.707031.417969 6.765625-.855469l27.449219-16.929688c2.050781-1.269531 3.40625-3.273437 3.800781-5.65625.394531-2.378906-.234375-4.71875-1.765625-6.578124l-10.59375-12.867188c-2.28125-2.773438-2.027344-6.832031.578125-9.296875 15.441406-14.601563 23.601563-31.707031 23.601563-49.480469 0-74.566406-77.761719-126.898437-119.867188-126.898437-67.585938 0-126.898438 79.09375-126.898438 126.898437 0 16.710938 7.207032 32.925782 20.832032 46.898438 1.28125 1.308594 1.972656 3.074218 1.941406 4.898437-.039062 1.835938-.808594 3.570313-2.132812 4.828125l-12.726563 12.046875c-1.753906 1.660157-2.667969 3.898438-2.566406 6.3125.101562 2.40625 1.183593 4.566407 3.066406 6.078125l25.152344 20.203125c1.878906 1.507813 4.214843 2.078125 6.601562 1.679688 2.378907-.429688 4.371094-1.800781 5.609375-3.867188l12.675782-21.121093c1.257812-2.101563 3.507812-3.3125 5.851562-3.3125zm0 0"/><path fill="#4c241d" d="m385.53125 394.105469c-1.746094 0-3.496094-.664063-4.828125-2l-20.125-20.117188c-2.667969-2.667969-2.667969-6.988281 0-9.65625 2.664063-2.664062 6.984375-2.664062 9.652344 0l20.125 20.121094c2.667969 2.667969 2.667969 6.988281 0 9.652344-1.332031 1.335937-3.078125 2-4.824219 2zm0 0"/><path fill="#fff" d="m149.996094 218.835938c-5.3125-5.480469-12.726563-8.914063-20.984375-8.914063h-.511719c-7.921875 0-15.609375 3.289063-20.816406 9.261719-11.117188 12.738281-17.824219 26.683594-19.949219 41.882812-2.894531 20.675782 12.933594 39.113282 33.578125 40.007813.519531.023437 1.027344.085937 1.554688.085937 19.535156 0 35.371093-15.835937 35.371093-35.371094v-26.710937c0-7.878906-3.15625-14.996094-8.242187-20.242187zm0 0"/><path fill="#4c241d" d="m122.863281 307.988281c-.488281 0-.960937-.027343-1.433593-.066406-12.316407-.539063-23.519532-6.101563-31.15625-15.273437-7.539063-9.054688-10.929688-20.914063-9.304688-32.527344 2.285156-16.359375 9.546875-31.648438 21.566406-45.425782 6.429688-7.375 15.886719-11.601562 25.960938-11.601562 10.339844 0 19.53125 3.898438 26.398437 10.988281 6.554688 6.757813 10.167969 15.640625 10.167969 24.992188v26.714843c0 23.265626-18.933594 42.199219-42.199219 42.199219zm6.144531-91.242187c-6.640624 0-12.34375 2.519531-16.175781 6.921875-10.253906 11.753906-16.429687 24.652343-18.339843 38.347656-1.109376 7.925781 1.117187 15.707031 6.277343 21.898437 5.179688 6.222657 12.773438 9.992188 20.835938 10.339844.09375 0 .84375.054688.910156.054688 16.113281 0 28.894531-12.792969 28.894531-28.519532v-26.714843c0-5.785157-2.238281-11.285157-6.3125-15.484375-4.28125-4.417969-9.988281-6.84375-16.089844-6.84375zm0 0"/><path fill="#bd53b5" d="m143.28125 243.796875c-14.929688 0-27.035156 13.832031-27.035156 30.894531 0 10.867188 4.933594 20.382813 12.355468 25.890625 16.789063-2.753906 29.636719-17.222656 29.636719-34.792969v-16.816406c-4.285156-3.261718-9.421875-5.175781-14.957031-5.175781zm0 0"/><path fill="#4c241d" d="m128.601562 307.40625c-1.453124 0-2.878906-.464844-4.066406-1.339844-9.457031-7.019531-15.113281-18.746094-15.113281-31.375 0-20.800781 15.1875-37.722656 33.863281-37.722656 6.839844 0 13.4375 2.273438 19.085938 6.574219 1.699218 1.292969 2.695312 3.300781 2.695312 5.433593v16.8125c0 20.707032-14.867187 38.167969-35.355468 41.527344-.367188.066406-.742188.089844-1.109376.089844zm14.679688-56.785156c-11.136719 0-20.207031 10.800781-20.207031 24.070312 0 7.242188 2.714843 13.957032 7.375 18.507813 12.304687-3.351563 20.957031-14.4375 20.957031-27.410157v-13.109374c-2.550781-1.351563-5.316406-2.058594-8.125-2.058594zm0 0"/><path fill="#fff" d="m221.535156 218.835938c5.3125-5.480469 12.730469-8.914063 20.984375-8.914063h.515625c7.921875 0 15.605469 3.289063 20.816406 9.261719 11.113282 12.738281 17.820313 26.683594 19.949219 41.882812 2.894531 20.675782-12.9375 39.113282-33.578125 40.007813-.519531.023437-1.03125.085937-1.554687.085937-19.535157 0-35.375-15.835937-35.375-35.371094v-26.710937c0-7.878906 3.160156-14.996094 8.242187-20.242187zm0 0"/><path fill="#4c241d" d="m248.667969 307.988281c-23.265625 0-42.199219-18.933593-42.199219-42.203125v-26.710937c0-9.351563 3.613281-18.234375 10.167969-24.996094 6.863281-7.085937 16.058593-10.988281 25.886719-10.988281 10.585937 0 20.042968 4.230468 26.472656 11.601562 12.019531 13.78125 19.28125 29.066406 21.566406 45.425782 1.625 11.613281-1.765625 23.472656-9.304688 32.527343-7.636718 9.175781-18.839843 14.734375-30.742187 15.25-.886719.066407-1.359375.09375-1.847656.09375zm-22.230469-84.402343c-4.074219 4.199218-6.3125 9.703124-6.3125 15.488281v26.710937c0 15.742188 12.804688 28.546875 28.546875 28.546875.085937-.003906 1.207031-.078125 1.292969-.078125 8.027344-.347656 15.617187-4.121094 20.800781-10.339844 5.160156-6.195312 7.386719-13.976562 6.28125-21.902343-1.914063-13.691407-8.085937-26.59375-18.339844-38.347657-3.835937-4.398437-9.542969-6.917968-15.667969-6.917968-6.617187 0-12.324218 2.425781-16.601562 6.839844zm0 0"/><path fill="#bd53b5" d="m228.25 243.796875c14.933594 0 27.035156 13.832031 27.035156 30.894531 0 10.867188-4.933594 20.382813-12.351562 25.890625-16.792969-2.753906-29.640625-17.222656-29.640625-34.792969v-16.816406c4.285156-3.261718 9.421875-5.175781 14.957031-5.175781zm0 0"/><path fill="#4c241d" d="m242.929688 307.40625c-.367188 0-.742188-.027344-1.105469-.09375-20.488281-3.359375-35.355469-20.820312-35.355469-41.527344v-16.8125c0-2.132812.996094-4.140625 2.695312-5.433594 5.644532-4.300781 12.246094-6.574218 19.085938-6.574218 18.671875 0 33.859375 16.925781 33.859375 37.726562 0 12.625-5.652344 24.351563-15.109375 31.371094-1.191406.878906-2.617188 1.34375-4.070312 1.34375zm-22.804688-54.726562v13.109374c0 12.972657 8.652344 24.058594 20.957031 27.410157 4.660157-4.550781 7.375-11.265625 7.375-18.507813 0-13.269531-9.066406-24.070312-20.207031-24.070312-2.808594 0-5.574219.707031-8.125 2.058594zm0 0"/></svg>