<svg xmlns="http://www.w3.org/2000/svg" xmlns:xlink="http://www.w3.org/1999/xlink" id="Capa_1" x="0" y="0" version="1.1" viewBox="0 0 255.1 255.1" xml:space="preserve" style="enable-background:new 0 0 255.1 255.1"><style type="text/css">.st0Ghost{fill:#4c6ab2}.st1Ghost{fill:#fefefe}</style><circle cx="127.6" cy="127.6" r="121.6" class="st0Ghost"/><path d="M192.672,195.691c-0.884-0.486-1.76-0.986-2.637-1.486c-0.355-0.202-0.714-0.397-1.067-0.601	c-2.418-1.402-4.436-3.276-6.186-5.429c-2.424-2.981-2.838-6.226-1.106-9.702c0.502-1.006,1.311-1.764,2.028-2.6	c18.7-21.802,24.477-46.608,16.032-74.078c-10.625-34.564-45.062-57.747-83.317-53.41c-16.442,1.864-31.111,8.214-43.22,19.526	c-21.67,20.244-29.571,45.085-23.605,74.227c7.359,27.95,24.376,44.864,51.098,55.839c7.386,2.534,16.151,4.589,23.847,5.834	c5.876,0.95,11.09,1.2,17.014,1.242c2.957,0.021,6.087-0.008,9.57-0.03c6.349,0.065,8.834-0.195,13.22-0.594	c9.575-0.872,18.676-3.627,27.469-7.452c0.289-0.126,0.575-0.258,0.863-0.384C193.374,196.288,193.252,196.01,192.672,195.691z M115.134,117.261c-1.355,8.629-8.526,14.785-17.255,14.761c-7.361-0.02-13.807-4.569-16.28-11.488	c-2.458-6.879-0.337-14.596,5.291-19.228c0.425-0.35,0.861-0.694,1.326-0.985c0.995-0.623,1.18-0.556,1.316,0.604	c0.278,2.37,0.875,4.637,1.991,6.754c4.1,7.776,13.352,11.245,21.638,7.94C115.663,114.621,115.447,115.265,115.134,117.261z M136.005,118.04c-0.106-0.539-0.193-1.087-0.225-1.635c-0.083-1.403,0.093-1.563,1.401-1.004c3.839,1.641,7.769,1.918,11.773,0.81	c6.683-1.849,11.603-7.687,12.406-14.584c0.066-0.568-0.266-1.418,0.528-1.626c0.629-0.165,1.128,0.457,1.625,0.825	c5.866,4.345,8.344,12.202,6.066,19.195c-2.368,7.266-8.948,12.02-16.612,12.001C144.655,132.001,137.605,126.193,136.005,118.04z" class="st1Ghost"/></svg>