<?xml version="1.0" encoding="utf-8"?>
<!-- Generator: Adobe Illustrator 16.0.0, SVG Export Plug-In . SVG Version: 6.00 Build 0)  -->
<!DOCTYPE svg PUBLIC "-//W3C//DTD SVG 1.1//EN" "http://www.w3.org/Graphics/SVG/1.1/DTD/svg11.dtd">
<svg version="1.1" id="Layer_1" xmlns="http://www.w3.org/2000/svg" xmlns:xlink="http://www.w3.org/1999/xlink" x="0px" y="0px"
	 width="18px" height="18px" viewBox="0 0 18 18" enable-background="new 0 0 18 18" xml:space="preserve">
<g transform="matrix(1,0,0,1,-549.992,-214)">
	<path fill="#ffffff" d="M566.1,229.9c0.2,0,0.3-0.1,0.5-0.2c0.1-0.2,0.2-0.4,0.2-0.6s-0.1-0.4-0.2-0.6c-0.1-0.2-0.3-0.2-0.5-0.2
		c-2.7,0-11.5,0-14.2,0c-0.2,0-0.3,0.1-0.5,0.2c-0.1,0.2-0.2,0.4-0.2,0.6s0.1,0.4,0.2,0.6c0.1,0.2,0.3,0.2,0.5,0.2
		C554.6,229.9,563.4,229.9,566.1,229.9z M566.1,223.8c0.2,0,0.3-0.1,0.5-0.2c0.1-0.2,0.2-0.4,0.2-0.6s-0.1-0.4-0.2-0.6
		c-0.1-0.2-0.3-0.2-0.5-0.2c-2.7,0-11.5,0-14.2,0c-0.2,0-0.3,0.1-0.5,0.2c-0.1,0.2-0.2,0.4-0.2,0.6s0.1,0.4,0.2,0.6
		c0.1,0.2,0.3,0.2,0.5,0.2C554.6,223.8,563.4,223.8,566.1,223.8z M566.1,217.8c0.2,0,0.3-0.1,0.5-0.2c0.1-0.2,0.2-0.4,0.2-0.6
		c0-0.2-0.1-0.4-0.2-0.6c-0.1-0.2-0.3-0.2-0.5-0.2c-2.7,0-11.5,0-14.2,0c-0.2,0-0.3,0.1-0.5,0.2c-0.1,0.2-0.2,0.4-0.2,0.6
		c0,0.2,0.1,0.4,0.2,0.6c0.1,0.2,0.3,0.2,0.5,0.2C554.6,217.8,563.4,217.8,566.1,217.8z"/>
</g>
</svg>
