<svg xmlns="http://www.w3.org/2000/svg" xmlns:xlink="http://www.w3.org/1999/xlink" id="Layer_1" x="0" y="0" version="1.1" viewBox="0 0 511.996 511.996" xml:space="preserve" style="enable-background:new 0 0 511.996 511.996"><g><g><path d="M491.875,156.349c-12.893-30.485-31.344-57.858-54.844-81.363c-23.52-23.51-50.912-41.961-81.373-54.862 C324.09,6.774,290.56,0,256,0c-34.554,0-68.088,6.774-99.647,20.123c-30.485,12.901-57.868,31.353-81.368,54.862 C51.48,98.49,33.019,125.863,20.127,156.348C6.774,187.917,0.004,221.441,0.004,256.006c0,34.549,6.77,68.078,20.123,99.646 c12.892,30.48,31.353,57.854,54.858,81.373c23.5,23.5,50.882,41.951,81.368,54.844c31.559,13.352,65.094,20.127,99.647,20.127 c34.56,0,68.089-6.775,99.658-20.127c30.461-12.893,57.854-31.344,81.373-54.844c23.5-23.52,41.951-50.893,54.844-81.373 c13.342-31.568,20.117-65.098,20.117-99.646C511.992,221.441,505.217,187.917,491.875,156.349z M90.064,90.069 c44.328-44.319,103.255-68.736,165.937-68.736c62.687,0,121.609,24.417,165.933,68.736c37.234,37.24,60.4,84.789,66.871,136.211 c-10.812,2.02-29.9,5.279-55.842,8.515c-21.344,2.662-49.873,5.607-84.061,7.701c-10.734-41.275-48.312-71.829-92.902-71.829 c-44.588,0-82.172,30.554-92.912,71.829c-34.182-2.094-62.711-5.039-84.049-7.701c-8.902-1.113-16.99-2.221-24.226-3.284 c5.367-44.868,25.436-86.373,57.882-118.819c38.275-38.27,89.172-59.358,143.304-59.358c2.726,0,5.46-1.039,7.539-3.122 c4.168-4.167,4.168-10.917,0-15.088c-2.078-2.079-4.812-3.123-7.539-3.123c-59.833,0-116.083,23.304-158.388,65.608 c-35.672,35.677-57.813,81.265-63.883,130.554c-4.093-0.695-7.617-1.338-10.534-1.882C29.652,174.858,52.833,127.31,90.064,90.069 z M330.658,266.662c0,41.178-33.49,74.676-74.658,74.676c-41.172,0-74.662-33.498-74.662-74.676 c0-41.166,33.49-74.666,74.662-74.666C297.168,191.996,330.658,225.496,330.658,266.662z M21.338,256.006 c0-2.784,0.063-5.559,0.157-8.314c21.97,4.055,70.348,11.805,138.554,16.039c-0.034,0.977-0.049,1.951-0.049,2.932 c0,2.588,0.103,5.137,0.304,7.656c-32.941-2.068-60.505-4.93-81.265-7.529c-27.48-3.422-47.27-6.871-57.677-8.857 C21.353,257.29,21.338,256.643,21.338,256.006z M421.934,421.928c-44.324,44.334-103.246,68.734-165.933,68.734 c-62.682,0-121.608-24.4-165.937-68.734c-38.638-38.639-62.138-88.402-67.53-142.059c22.936,4.225,72.53,12.029,142.059,16.127 c12.422,38.637,48.701,66.666,91.407,66.666c42.707,0,78.98-28.029,91.402-66.666c45.6-2.688,82.629-6.971,109.188-10.785 c-6.186,43.029-25.98,82.785-57.275,114.1c-38.283,38.273-89.195,59.352-143.314,59.352c-2.726,0-5.461,1.049-7.539,3.129 c-4.172,4.166-4.172,10.92,0,15.078c2.078,2.088,4.813,3.127,7.539,3.127c59.843,0,116.089-23.305,158.382-65.598 c36.178-36.188,58.441-82.529,64.148-132.609c4.137-0.695,7.773-1.322,10.932-1.92C484.07,333.525,460.57,383.289,421.934,421.928 z M490.638,257.932c-10.412,1.986-30.205,5.436-57.676,8.857c-20.766,2.6-48.324,5.461-81.275,7.529 c0.215-2.52,0.314-5.068,0.314-7.656c0-0.98-0.02-1.955-0.051-2.932c68.207-4.234,116.58-11.984,138.541-16.039 c0.099,2.756,0.157,5.531,0.157,8.315C490.648,256.643,490.648,257.29,490.638,257.932z"/></g></g><g><g><path d="M256,213.334c-29.407,0-53.338,23.927-53.338,53.328c0,29.412,23.932,53.334,53.338,53.334 c29.402,0,53.343-23.922,53.343-53.334C309.344,237.261,285.402,213.334,256,213.334z M256,298.662c-17.647,0-32-14.354-32-32 c0-17.642,14.353-31.995,32-31.995c17.638,0,32,14.354,32,31.995C288,284.309,273.639,298.662,256,298.662z"/></g></g></svg>