<svg xmlns="http://www.w3.org/2000/svg" xmlns:xlink="http://www.w3.org/1999/xlink" id="Capa_1" x="0" y="0" version="1.1" viewBox="0 0 512.736 512.736" xml:space="preserve" style="enable-background:new 0 0 512.736 512.736"><path style="fill:#ffd83b" d="M238,512.736c0-76.8-128.544-205.344-205.344-205.344c76.8,0,205.344-128.544,205.344-205.344	c0,76.8,128.544,205.344,205.344,205.344C366.544,307.392,238,435.936,238,512.736z"/><path style="fill:#f3c432" d="M238,388.272c0-30.24-50.64-80.88-80.88-80.88c30.24,0,80.88-50.64,80.88-80.88	c0,30.24,50.64,80.88,80.88,80.88C288.624,307.392,238,358.016,238,388.272z"/><g><path style="fill:#ffd83b" d="M381.168,226.512c0-36.992-61.92-98.912-98.912-98.912c36.992,0,98.912-61.92,98.912-98.912 c0,36.992,61.92,98.912,98.912,98.912C443.088,127.6,381.168,189.52,381.168,226.512z"/><path style="fill:#ffd83b" d="M92.976,505.36c0-19.056-31.888-50.944-50.944-50.944c19.056,0,50.944-31.888,50.944-50.944 c0,19.056,31.888,50.944,50.944,50.944C124.864,454.432,92.976,486.32,92.976,505.36z"/><path style="fill:#ffd83b" d="M158.688,141.408c0-26.448-44.256-70.704-70.704-70.704c26.448,0,70.704-44.256,70.704-70.704 c0,26.448,44.256,70.704,70.704,70.704C202.944,70.704,158.688,114.96,158.688,141.408z"/></g></svg>