<svg xmlns="http://www.w3.org/2000/svg" xmlns:xlink="http://www.w3.org/1999/xlink" id="Layer_1" x="0" y="0" version="1.1" viewBox="0 0 511.989 511.989" xml:space="preserve" style="enable-background:new 0 0 511.989 511.989"><polygon style="fill:#5d9cec" points="361.997 466.788 349.997 424.772 353.997 392.774 372.653 362.79 346.653 350.134 337.997 356.134 306.654 382.134 258.663 392.774 215.336 392.774 177.337 377.462 156.665 346.134 144.009 352.79 118.51 366.134 74.011 384.134 33.339 406.133 20.668 424.772 17.34 498.132 72.011 498.132 272.343 498.132 387.997 498.132"/><polygon style="fill:#f5f7fa" points="373.497 107.622 342.497 60.623 302.498 29.624 250.257 19.124 204.508 25.624 167.509 53.327 142.009 79.123 123.01 117.326 118.51 165.621 171.009 148.122 203.508 136.622 250.257 136.122 289.499 136.122 344.497 146.622 373.497 162.621 377.997 151.122"/><polygon style="fill:#ed5565" points="363.997 159.95 327.997 148.122 264.007 138.45 198.32 138.45 133.306 160.684 118.51 181.45 377.997 177.45"/><path style="fill:#5d9cec" d="M271.413,83.451c0,11.703-9.469,21.172-21.156,21.172c-11.703,0-21.171-9.469-21.171-21.172	c0-11.687,9.468-21.156,21.171-21.156C261.944,62.295,271.413,71.764,271.413,83.451z"/><path style="fill:#f5f7fa" d="M464.495,433.116l-18,4.5l-47.999,1.5l-25.999-4.5c0,0-22.5-9.844-24-12.483	c-1.5-2.641,0,23.983,0,23.983l24.5,38l39.499,11.5l29.999-3l26.5-9.5l17-30.5l7.5-27.5L464.495,433.116z"/><polygon style="fill:#ed5565" points="479.495 383.118 454.995 360.618 424.995 356.118 397.496 356.118 369.997 371.118 347.841 410.117 347.841 424.616 358.309 428.007 377.997 433.616 400.996 435.616 434.995 429.757 476.683 429.757 493.495 420.117 493.495 404.117"/><path style="fill:#f5f7fa" d="M441.433,438.085c0,11.469-9.281,20.766-20.749,20.766c-11.469,0-20.781-9.297-20.781-20.766	s9.312-20.765,20.781-20.765C432.151,417.32,441.433,426.616,441.433,438.085z"/><g><polygon style="fill:#eac6bb" points="128.682 181.293 128.682 211.464 137.352 255.995 178.681 313.463 229.086 346.134 264.679 352.118 306.685 322.118 337.341 295.447 353.997 267.448 367.997 224.792 377.997 184.121"/><polygon style="fill:#eac6bb" points="339.497 301.619 163.509 301.619 160.618 352.118 169.509 369.118 184.509 379.618 212.508 389.618 242.007 389.618 280.999 389.618 320.997 375.118 341.997 360.118 341.997 339.618"/></g><path d="M250.257,117.326c17.672,0,31.992-14.328,31.992-32c0-17.671-14.32-32-31.992-32c-17.671,0-31.999,14.328-31.999,32	S232.586,117.326,250.257,117.326z M250.257,74.655c5.891,0,10.672,4.781,10.672,10.671s-4.781,10.672-10.672,10.672	c-5.875,0-10.656-4.781-10.656-10.672C239.601,79.435,244.382,74.655,250.257,74.655z"/><path d="M506.244,426.647c0-47.045-38.28-85.326-85.311-85.326c-16.625,0-32.155,4.781-45.28,13.031	c-17.75-9.203-23.688-15.969-25.656-19.766c-0.094-0.203-0.156-0.406-0.25-0.609l-0.281-36.515	c22.281-29.796,38.188-66.967,38.344-105.467h4.375l0,0h6.624c5.875,0,8.406-4.25,5.656-9.437c0,0-3.25-6.094-12.249-14.234v-15.718	c0-74.764-59-136.013-131.303-141.544c0-0.125,0.016-0.266,0.016-0.406C260.928,4.781,256.147,0,250.257,0S239.6,4.781,239.6,10.656	c0,0.141,0.016,0.281,0.016,0.406c-72.295,5.531-131.294,66.78-131.294,141.544v15.718c-9.016,8.141-12.266,14.234-12.266,14.234	c-2.766,5.187-0.219,9.437,5.656,9.437h6.609l0,0h4.391c0.141,38.5,16.078,75.671,38.343,105.467l-0.266,36.515	c-0.094,0.203-0.172,0.406-0.266,0.609c-2.781,5.406-13.656,16.891-55.452,32.812c-11.781,4.5-20.733,11.312-47.202,18.438	l-1.828,0.516c-24.093,7.953-40.296,30.296-40.296,55.529v70.108h244.511h170.677l0,0	C467.964,511.99,506.244,473.71,506.244,426.647z M484.464,418.867c-8.031,2.141-19.844,4.562-34,6.14	c-4.844-11.546-16.25-19.687-29.53-19.687c-13.281,0-24.718,8.141-29.53,19.687c-14.188-1.578-25.969-3.999-34-6.14	c3.844-31.624,30.875-56.218,63.53-56.218S480.589,387.243,484.464,418.867z M431.589,437.319c0,5.891-4.781,10.672-10.655,10.672	c-5.875,0-10.688-4.781-10.688-10.672s4.812-10.672,10.688-10.672C426.807,426.647,431.589,431.429,431.589,437.319z M142.399,170.653c11.219-5.938,24.438-10.703,39.312-14.218c20.03-4.719,43.108-7.109,68.545-7.109	c25.461,0,48.522,2.391,68.553,7.109c14.875,3.515,28.094,8.281,39.312,14.218H142.399z M139.274,105.763	c6.156-14.343,14.953-27.265,26.156-38.39c11.172-11.094,24.124-19.812,38.483-25.921c14.781-6.266,30.375-9.453,46.343-9.453	c15.984,0,31.586,3.188,46.366,9.453c14.344,6.109,27.312,14.828,38.468,25.921c11.219,11.125,20,24.046,26.156,38.39	c6.375,14.859,9.625,30.625,9.625,46.828v0.719c-23.25-12.969-61.03-25.312-120.615-25.312c-59.562,0-97.342,12.343-120.606,25.312	v-0.703C129.65,136.388,132.884,120.622,139.274,105.763z M366.466,191.996c-0.156,35-16.094,73.14-43.844,104.748	c-12.249,13.953-25.968,25.624-39.654,33.765c-12.258,7.266-23.867,11.266-32.711,11.266s-20.452-4-32.687-11.266	c-13.703-8.141-27.438-19.812-39.671-33.765c-27.734-31.608-43.687-69.749-43.843-104.748H366.466z M250.257,363.118	c23.023,0,52.366-15.906,78.053-41.312l0.094,12.328l0.031,4.5l1.781,3.953c0.156,0.344,0.438,1,0.812,1.766	c1,1.922,2.219,3.797,3.625,5.625c-10.719,13.422-35.187,34.016-84.396,34.016c-54.218,0-75.014-24.875-82.045-37.391	c0.453-0.734,0.891-1.484,1.281-2.266c0.391-0.75,0.656-1.375,0.812-1.75l1.781-3.938l0.031-4.516l0.094-12.328	C197.898,347.212,227.258,363.118,250.257,363.118z M27.073,490.647v-48.766c0-15.906,10.156-29.983,25.328-35.171l1.188-0.344	c19.953-5.375,30.968-10.64,39.812-14.874c3.438-1.641,6.391-3.062,9.266-4.156c15.875-6.047,35.733-14.422,50.218-25.094	c2.969,4.406,6.906,9.281,12.094,14.172c25.312,23.89,60.358,28.905,85.279,28.905c44.929,0,72.584-15.515,87.896-28.546	c5.031-4.281,9.094-8.562,12.344-12.5c2.406,1.641,4.938,3.234,7.531,4.766c-13.906,15.203-22.438,35.421-22.438,57.607	c0,25.469,11.219,48.359,28.969,64H250.257L27.073,490.647L27.073,490.647z M420.933,490.647c-30.312,0-55.78-21.188-62.374-49.531	c8,1.844,18.75,3.875,31.688,5.25c3.906,13.25,16.187,22.953,30.687,22.953c14.499,0,26.78-9.703,30.687-22.953	c12.906-1.375,23.656-3.406,31.656-5.25C476.714,469.46,451.245,490.647,420.933,490.647z"/></svg>